<?xml version="1.0" encoding="utf-8"?>
<!-- Generator: Adobe Illustrator 22.1.0, SVG Export Plug-In . SVG Version: 6.00 Build 0)  -->
<svg version="1.1" id="Layer_1" xmlns="http://www.w3.org/2000/svg" xmlns:xlink="http://www.w3.org/1999/xlink" x="0px" y="0px"
	 viewBox="0 0 755.9 378" style="enable-background:new 0 0 755.9 378;" xml:space="preserve">
<style type="text/css">
	.st0{fill:#EDF0F4;}
</style>
<g id="Ellipse_1_xA0_Image_1_">
	<g>
		<g>
			<path class="st0" d="M377.8,140.9c0.3,0.1,0.6,0.2,0.9,0.4c1.1,0.7,1.3,1.8,1.1,3.1c-0.2,1.6,0.1,3.1,1.1,4.5
				c0.5,0.6,1.1,1.2,1.7,1.7c3.2,2.5,6.4,5,9.5,7.4c0.4,0.3,0.9,0.7,1.3,1c0.6,0.6,0.8,1.3,0.5,2.1c-0.2,0.7-0.7,1.2-1.4,1.4
				c-0.6,0.2-1.1,0-1.6-0.4c-3.2-2.5-6.3-5-9.5-7.5c-0.9-0.7-1.9-1.4-2.7-2.3c-2-2.1-2.6-3.6-2.9-6.9c-0.1,0-0.2,0.1-0.3,0.1
				c-1,0.5-1.8,1.3-2.3,2.3c-1.7,3.3-4.3,5-7.9,4.8c-3.5-0.1-5.8,1.5-7.8,4.1c-2.2,3-3.5,6.4-4.4,10c-1.2,4.4-1.8,8.9-2,13.5
				c-0.1,2.5-0.2,5.1-0.2,7.6c0,2.9,0,5.9-0.1,8.8c0,1.1,0.3,1.4,1.4,1.4c8.7,0,17.5,0,26.2,0c3.8,0,7.5,0.1,11.3,0.1
				c0.4,0,0.8,0,1.2,0c0.4,0,0.6-0.2,0.6-0.6c0-1.5,0-2.9,0-4.4s-0.8-2.6-2-3.4c-2.5-1.6-4.8-3.4-7-5.3c-0.8-0.7-1-1.8-0.4-2.6
				c0.7-1,2-1.2,3-0.4c1.7,1.3,3.4,2.7,5.1,4c0.5,0.4,1.1,0.8,1.7,1.1c2.4,1.6,3.6,3.9,3.6,6.8c0,1.4,0,2.7,0,4.1
				c0,2.4-1.5,4.1-3.9,4.5c-0.1,0-0.2,0.1-0.3,0.1c-0.5,0-1.1,0-1.6,0c-0.1,0-0.2-0.1-0.3-0.1c-3.5-0.1-7-0.1-10.4-0.1
				c-9,0-17.9,0-26.9,0c-3,0-5.1-2-5-5c0-3.6,0-7.3,0.1-10.9c0-2.7,0.1-5.5,0.3-8.2c0.3-4.7,1.1-9.4,2.5-13.9
				c1.2-4,2.9-7.7,5.7-10.9c2.5-2.9,5.7-4.4,9.6-4.2c2.1,0.1,3.7-0.8,4.7-2.7c0.7-1.5,1.8-2.7,3.2-3.6c1.1-0.8,2.4-1.2,3.7-1.6
				C377,140.9,377.4,140.9,377.8,140.9z"/>
			<path class="st0" d="M405.4,174c-0.1,0.2-0.1,0.3-0.2,0.5c-0.2,0.7-0.7,1.1-1.4,1.1c-2.4,0.3-4.8,0.6-7.2,0.8
				c-0.7,0.1-1.4,0.2-2.1,0.2c-1,0.1-1.9-0.4-2-1.4c-0.1-0.9,0.5-1.7,1.5-1.8c2.1-0.3,4.2-0.5,6.3-0.7c0.2,0,0.4-0.1,0.6-0.1
				c-0.4-0.5-0.8-1-1.1-1.5c-1-1.4-2.1-2.8-3.1-4.2c-0.5-0.6-0.5-1.4,0-2c0.4-0.6,1.2-0.8,1.8-0.6c0.3,0.1,0.6,0.4,0.8,0.6
				c1.9,2.5,3.7,5,5.6,7.5c0.2,0.2,0.3,0.5,0.4,0.7C405.4,173.6,405.4,173.8,405.4,174z"/>
			<path class="st0" d="M382,176.7c-2.7,0.1-5.1-0.9-7.2-2.5c-0.5-0.4-1-0.8-1.5-1.2c-0.8-0.7-1-1.9-0.3-2.7s1.9-1,2.7-0.3
				c0.5,0.4,1,0.8,1.4,1.1c1.5,1.1,3.1,1.8,4.9,1.7c0.8-0.1,1.6-0.2,2.5-0.3c1.2-0.2,2.3,0.4,2.7,1.4c0.4,1-0.2,2.1-1.3,2.4
				c-0.9,0.2-1.9,0.3-2.9,0.4C382.6,176.7,382.3,176.7,382,176.7z"/>
			<path class="st0" d="M397.1,162.2c0,0.1-0.1,0.4-0.2,0.6c-2,4.7-4,9.4-6.1,14.1c-0.3,0.7-0.9,1.1-1.5,1c-0.7-0.1-1.3-0.6-1.4-1.3
				c0-0.3,0-0.7,0.2-1c1.4-3.3,2.9-6.7,4.3-10c0.6-1.3,1.1-2.7,1.7-4c0.4-0.9,1.1-1.3,2-1C396.7,160.8,397.1,161.4,397.1,162.2z"/>
			<path class="st0" d="M376.2,161.1c-1.2,0-2.2-1-2.2-2.2s1-2.2,2.2-2.2s2.2,1,2.2,2.2C378.4,160.1,377.4,161.1,376.2,161.1z"/>
		</g>
	</g>
</g>
<g id="ADEOCODE">
	<g>
		<path class="st0" d="M337.1,219.7h1.4l3.4,7.9h-2l-0.7-1.7h-3.1l-0.7,1.7h-1.9L337.1,219.7z M337.8,222l-1,2.5h1.9L337.8,222z"/>
		<path class="st0" d="M345.4,219.7h2.6c0.6,0,1.2,0.1,1.8,0.2c0.6,0.1,1.1,0.4,1.5,0.7s0.8,0.7,1,1.2s0.4,1.1,0.4,1.8
			c0,0.6-0.1,1.2-0.4,1.7c-0.2,0.5-0.6,0.9-1,1.2s-0.9,0.6-1.4,0.8s-1.1,0.3-1.7,0.3h-2.8V219.7z M347.2,226h0.9
			c0.4,0,0.8,0,1.1-0.1c0.3-0.1,0.6-0.2,0.9-0.4s0.5-0.4,0.6-0.7s0.2-0.7,0.2-1.1c0-0.4-0.1-0.7-0.2-1s-0.3-0.5-0.6-0.7
			c-0.2-0.2-0.5-0.3-0.9-0.4c-0.3-0.1-0.7-0.1-1-0.1h-1V226z"/>
		<path class="st0" d="M356.6,219.7h5.4v1.6h-3.6v1.5h3.4v1.6h-3.4v1.6h3.8v1.6h-5.6L356.6,219.7L356.6,219.7z"/>
		<path class="st0" d="M365.9,223.6c0-0.6,0.1-1.2,0.3-1.7s0.5-0.9,0.9-1.3c0.4-0.4,0.8-0.6,1.3-0.8s1.1-0.3,1.7-0.3
			s1.2,0.1,1.7,0.3s1,0.5,1.3,0.8c0.4,0.4,0.7,0.8,0.9,1.3s0.3,1.1,0.3,1.7s-0.1,1.2-0.3,1.7c-0.2,0.5-0.5,1-0.9,1.3
			c-0.4,0.4-0.8,0.6-1.3,0.8s-1.1,0.3-1.7,0.3s-1.2-0.1-1.7-0.3s-1-0.5-1.3-0.8c-0.4-0.4-0.7-0.8-0.9-1.3S365.9,224.3,365.9,223.6z
			 M367.7,223.6c0,0.4,0.1,0.7,0.2,1s0.3,0.6,0.5,0.8s0.5,0.4,0.8,0.5s0.6,0.2,1,0.2s0.7-0.1,1-0.2c0.3-0.1,0.6-0.3,0.8-0.5
			c0.2-0.2,0.4-0.5,0.5-0.8s0.2-0.6,0.2-1s-0.1-0.7-0.2-1s-0.3-0.6-0.5-0.8s-0.5-0.4-0.8-0.5s-0.6-0.2-1-0.2s-0.7,0.1-1,0.2
			c-0.3,0.1-0.6,0.3-0.8,0.5c-0.2,0.2-0.4,0.5-0.5,0.8C367.7,222.9,367.7,223.3,367.7,223.6z"/>
		<path class="st0" d="M383.4,221.7c-0.2-0.2-0.4-0.4-0.6-0.5s-0.5-0.2-0.9-0.2c-0.3,0-0.6,0.1-0.9,0.2c-0.3,0.1-0.5,0.3-0.7,0.5
			s-0.4,0.5-0.5,0.8s-0.2,0.7-0.2,1c0,0.4,0.1,0.7,0.2,1s0.3,0.6,0.5,0.8s0.4,0.4,0.7,0.5c0.3,0.1,0.6,0.2,0.9,0.2
			c0.4,0,0.7-0.1,0.9-0.2c0.3-0.1,0.5-0.4,0.7-0.6l1.4,1.1c-0.3,0.5-0.8,0.8-1.3,1s-1,0.3-1.6,0.3s-1.2-0.1-1.7-0.3s-1-0.5-1.3-0.8
			s-0.7-0.8-0.9-1.3c-0.2-0.5-0.3-1.1-0.3-1.7s0.1-1.2,0.3-1.7s0.5-0.9,0.9-1.3c0.4-0.4,0.8-0.6,1.3-0.8s1.1-0.3,1.7-0.3
			c0.2,0,0.5,0,0.7,0.1c0.2,0,0.5,0.1,0.7,0.2c0.2,0.1,0.5,0.2,0.7,0.4s0.4,0.3,0.6,0.5L383.4,221.7z"/>
		<path class="st0" d="M388.1,223.6c0-0.6,0.1-1.2,0.3-1.7s0.5-0.9,0.9-1.3c0.4-0.4,0.8-0.6,1.3-0.8s1.1-0.3,1.7-0.3
			s1.2,0.1,1.7,0.3s1,0.5,1.3,0.8c0.4,0.4,0.7,0.8,0.9,1.3s0.3,1.1,0.3,1.7s-0.1,1.2-0.3,1.7c-0.2,0.5-0.5,1-0.9,1.3
			s-0.8,0.6-1.3,0.8s-1.1,0.3-1.7,0.3s-1.2-0.1-1.7-0.3s-1-0.5-1.3-0.8s-0.7-0.8-0.9-1.3S388.1,224.3,388.1,223.6z M389.9,223.6
			c0,0.4,0.1,0.7,0.2,1s0.3,0.6,0.5,0.8s0.5,0.4,0.8,0.5s0.6,0.2,1,0.2s0.7-0.1,1-0.2c0.3-0.1,0.6-0.3,0.8-0.5
			c0.2-0.2,0.4-0.5,0.5-0.8s0.2-0.6,0.2-1s-0.1-0.7-0.2-1s-0.3-0.6-0.5-0.8s-0.5-0.4-0.8-0.5s-0.6-0.2-1-0.2s-0.7,0.1-1,0.2
			c-0.3,0.1-0.6,0.3-0.8,0.5c-0.2,0.2-0.4,0.5-0.5,0.8S389.9,223.3,389.9,223.6z"/>
		<path class="st0" d="M400.5,219.7h2.6c0.6,0,1.2,0.1,1.8,0.2c0.6,0.1,1.1,0.4,1.5,0.7s0.8,0.7,1,1.2s0.4,1.1,0.4,1.8
			c0,0.6-0.1,1.2-0.4,1.7c-0.2,0.5-0.6,0.9-1,1.2s-0.9,0.6-1.4,0.8s-1.1,0.3-1.7,0.3h-2.8V219.7z M402.2,226h0.9
			c0.4,0,0.8,0,1.1-0.1c0.3-0.1,0.6-0.2,0.9-0.4s0.5-0.4,0.6-0.7s0.2-0.7,0.2-1.1c0-0.4-0.1-0.7-0.2-1s-0.3-0.5-0.6-0.7
			c-0.2-0.2-0.5-0.3-0.9-0.4s-0.7-0.1-1-0.1h-1V226z"/>
		<path class="st0" d="M411.7,219.7h5.4v1.6h-3.6v1.5h3.4v1.6h-3.4v1.6h3.8v1.6h-5.6L411.7,219.7L411.7,219.7z"/>
	</g>
</g>
</svg>
